<svg xmlns="http://www.w3.org/2000/svg" fill="none" viewBox="0 0 120 87">
  <path fill="#243962" fill-rule="evenodd" d="M80.89 3.443C81.017 1.649 82.49.4 83.21 0c-1.995 2.575-.006 5.046 1.766 7.247.432.537.851 1.058 1.197 1.56 1.761 2.562 2.081 4.964 2.322 8.006.4 10.168-10.169 17.454-10.409 17.134-.917-1.761-2.103-2.749-3.073-3.556-1.147-.955-1.99-1.658-1.73-3.09.357-1.966 2.49-3.889 4.646-5.833.74-.668 1.484-1.337 2.159-2.013 2.27-2.27 2.412-2.885 2.865-4.842.074-.32.156-.677.257-1.082.413-1.652-.462-3.987-1.254-6.101-.591-1.576-1.136-3.03-1.067-3.987ZM36.285.08c.72.4 2.194 1.65 2.322 3.443.069.957-.476 2.41-1.067 3.987-.793 2.114-1.668 4.45-1.255 6.1.102.406.184.763.258 1.083.452 1.957.594 2.572 2.865 4.842.675.675 1.418 1.345 2.158 2.013 2.157 1.944 4.29 3.867 4.647 5.834.26 1.431-.584 2.134-1.73 3.089-.97.807-2.157 1.795-3.074 3.556-.24.32-10.808-6.966-10.408-17.134.24-3.042.56-5.444 2.322-8.006.345-.502.764-1.023 1.197-1.56 1.771-2.201 3.76-4.672 1.765-7.247Zm54.37 29.704c-4.483.768-9.02 4.857-10.728 6.805 1.361 4.243.88 7.286-.64 9.447-1.522 2.162-1.682 3.043.64 3.523 9.297-1.162 7.195-10.295 6.725-12.34-.048-.21-.08-.345-.08-.39.601.139 1.095.944 1.498 1.6.295.481.541.882.744.882-.522-7.115 1.031-8.642 1.623-9.224.134-.131.219-.215.219-.303Zm-51.088 6.885c-1.708-1.948-6.245-6.037-10.728-6.805 0 .088.084.172.219.303.591.582 2.144 2.11 1.622 9.224.203 0 .45-.401.745-.882.403-.656.897-1.461 1.497-1.6 0 .045-.031.18-.08.39-.47 2.045-2.571 11.178 6.725 12.34 2.322-.48 2.162-1.36.64-3.522-1.52-2.162-2-5.204-.64-9.448Zm27.39 15.692c.128-.256 5.711-2.722 8.487-3.923-.267.347-1.105 1.313-2.322 2.402-.32 2.082-1.681 2.882-3.123 2.963-1.44.08-3.202-1.121-3.042-1.442Zm-22.906-3.843c2.776 1.201 8.359 3.667 8.487 3.923.16.32-1.601 1.522-3.043 1.442-1.44-.08-2.802-.881-3.122-2.963-1.217-1.089-2.055-2.055-2.322-2.402Zm19.623 6.405a1.345 1.345 0 0 0-.24-.96c.833-.193 1.895 1.36 2.322 2.161.534 1.175 2.802 3.54 7.606 3.603 6.005.08 7.126-4.003 7.286-6.325.16-2.322-1.121-2.722-1.922-2.882-.8-.16-2.321.32-3.122 1.12-.156.157-.368.387-.618.659-1.033 1.123-2.737 2.974-4.026 3.425-1.156.405-3.734-1.07-5.377-2.011-.632-.362-1.126-.644-1.348-.711-.8-.24-1.922-.08-3.043.72-1.12.801-.8 3.683-.64 3.683.16-.361.927-.844 1.66-1.306.728-.459 1.423-.896 1.462-1.175Zm-7.613-.88a1.346 1.346 0 0 0-.24.96c.04.28.735.717 1.462 1.176.733.462 1.5.945 1.66 1.306.16 0 .48-2.882-.64-3.682-1.12-.801-2.242-.961-3.042-.721-.223.067-.716.35-1.348.71-1.644.942-4.221 2.417-5.378 2.012-1.288-.45-2.992-2.302-4.025-3.425a24.74 24.74 0 0 0-.618-.658c-.801-.8-2.322-1.281-3.123-1.12-.8.16-2.082.56-1.921 2.881.16 2.322 1.28 6.405 7.285 6.325 4.804-.064 7.073-2.428 7.606-3.602.427-.801 1.49-2.354 2.322-2.162Zm5.853 3.443c1.153-.513 2.029-1.495 2.322-1.922.72 1.441.4 2.402-1.2 3.443-.905.588-1.427 1.1-1.767 1.433-.262.257-.416.408-.556.408-.08-.8-.24-2.722 1.201-3.362Zm-4.332.08c-1.153-.513-2.029-1.495-2.322-1.922-.72 1.441-.4 2.402 1.2 3.443.906.588 1.427 1.1 1.767 1.433.262.257.416.408.556.408.08-.8.24-2.722-1.201-3.362Zm14.332-35.869c-5.925-8.006-19.055-7.366-24.42 0 0 .267.259.677.588 1.2.659 1.043 1.601 2.537 1.334 4.245l-.046.297c-.35 2.286-.403 2.634-5.398 7.629-3.042 3.843-2.802 8.246-1.922 9.768.881 1.52 1.842 2.482 5.285 1.12.636-.636.458-1.684.23-3.032-.375-2.216-.887-5.242 1.851-8.577-.043.186-.09.37-.14.556-.225.861-.472 1.803-.34 3.447.16 2.002.56 4.084 1.04 5.285.481 1.2 1.762 4.803-2.641 4.723.907.774 3.362 2.29 5.924 2.162 3.203-.16 5.124-2.082 5.284-6.005-.384-3.266-2.135-5.684-2.962-6.485h8.327c-1.068 1.495-3.17 4.884-3.043 6.485.16 2.002.881 6.005 5.204 6.005 2.963 0 5.445-1.334 6.005-2.002-1.708-.133-4.403-.72-2.402-5.444 1.63-3.848 1.041-6.885.32-8.727.32 0 2.62 2.562 2.082 6.325-.537 3.763-.4 4.884 0 5.284 1.601.721 4.948 1.361 5.525-1.841.72-4.003-.433-7.021-2.883-9.768a43.478 43.478 0 0 0-1.665-1.743c-1.8-1.814-3.059-3.08-3.059-5.943.24-1.228.961-3.94 1.922-4.964Zm-6.004-.4c-5.508-2.883-10.514-1.201-12.33 0l4.484 7.766-3.282.16c1.44 1.922 4.42 5.765 4.803 5.765.385 0 3.577-3.95 5.124-5.925h-3.282c1.228-2.082 3.843-6.55 4.484-7.766Zm50.342 45.183c.888 0 1.644-.312 2.268-.936.648-.648.972-1.416.972-2.304 0-.888-.324-1.644-.972-2.268-.624-.648-1.38-.972-2.268-.972-.888 0-1.656.324-2.304.972a3.089 3.089 0 0 0-.936 2.268c0 .888.312 1.656.936 2.304.648.624 1.416.936 2.304.936ZM19.44 86.064h-6.192l-4.752-8.28H5.76v8.28H0v-25.2h10.08c2.4 0 4.44.84 6.12 2.52 1.68 1.68 2.52 3.72 2.52 6.12 0 1.512-.432 2.928-1.296 4.248a8.564 8.564 0 0 1-3.348 3.06l5.364 9.252Zm-9.36-19.8H5.76v6.48h4.32c.792 0 1.464-.312 2.016-.936.576-.624.864-1.392.864-2.304 0-.912-.288-1.68-.864-2.304-.552-.624-1.224-.936-2.016-.936Zm22.616 11.628v-9.828h5.4v18h-5.4v-1.692c-1.08 1.464-2.796 2.196-5.148 2.196-1.92 0-3.528-.66-4.824-1.98-1.272-1.344-1.908-3.168-1.908-5.472V68.064h5.4v10.26c0 1.032.288 1.836.864 2.412.576.576 1.332.864 2.268.864 1.056 0 1.872-.312 2.448-.936.6-.648.9-1.572.9-2.772Zm13.68-6.624v-3.204h-5.4v18h5.4v-8.136c0-1.632.565-2.772 1.693-3.42 1.128-.672 2.364-.9 3.708-.684v-6.12c-1.272 0-2.412.312-3.42.936-.984.624-1.644 1.5-1.98 2.628ZM68.99 83.832c-1.824 1.824-4.08 2.736-6.768 2.736-2.688 0-4.944-.912-6.768-2.736-1.848-1.848-2.772-4.104-2.772-6.768 0-2.64.924-4.884 2.772-6.732 1.848-1.848 4.104-2.772 6.768-2.772 2.664 0 4.92.924 6.768 2.772 1.848 1.848 2.772 4.092 2.772 6.732 0 2.664-.924 4.92-2.772 6.768Zm-10.91-6.768c0 1.248.396 2.268 1.188 3.06.792.792 1.776 1.188 2.952 1.188s2.16-.396 2.952-1.188c.792-.792 1.188-1.812 1.188-3.06s-.396-2.268-1.188-3.06c-.792-.792-1.776-1.188-2.952-1.188s-2.16.396-2.952 1.188c-.792.792-1.188 1.812-1.188 3.06Zm55.471 9h5.4v-18h-5.4v18Zm-28.189-18v9.828c0 1.2-.3 2.124-.9 2.772-.576.624-1.392.936-2.448.936-.936 0-1.692-.288-2.268-.864-.576-.576-.864-1.38-.864-2.412v-10.26h-5.4v11.052c0 2.304.636 4.128 1.908 5.472 1.296 1.32 2.904 1.98 4.824 1.98 2.352 0 4.068-.732 5.148-2.196v1.692h5.4v-18h-5.4Zm18.829-.504c1.944 0 3.54.66 4.788 1.98 1.296 1.344 1.944 3.168 1.944 5.472v11.052h-5.4v-10.26c0-1.032-.288-1.836-.864-2.412-.576-.576-1.332-.864-2.268-.864-1.056 0-1.884.324-2.484.972-.576.624-.864 1.536-.864 2.736v9.828h-5.4v-18h5.4v1.692c1.08-1.464 2.796-2.196 5.148-2.196ZM65.84 71.064a1 1 0 1 0 0-2 1 1 0 0 0 0 2Z" clip-rule="evenodd"/>
</svg>
