<svg xmlns="http://www.w3.org/2000/svg" fill="none" viewBox="0 0 84 84">
  <path fill="#3866DD" fill-rule="evenodd" d="M70.727 4.746C70.9 2.274 72.903.552 73.882 0c-2.711 3.55-.008 6.957 2.4 9.991.587.74 1.156 1.458 1.625 2.15 2.394 3.533 2.829 6.844 3.155 11.039.544 14.018-13.816 24.063-14.143 23.622-1.246-2.428-2.858-3.79-4.176-4.903-1.558-1.317-2.705-2.286-2.352-4.26.486-2.71 3.384-5.361 6.315-8.042 1.006-.92 2.016-1.844 2.933-2.774 3.085-3.13 3.278-3.978 3.893-6.676.1-.442.212-.933.35-1.493.561-2.276-.628-5.495-1.705-8.41-.803-2.174-1.543-4.178-1.45-5.498ZM10.117.11c.98.552 2.982 2.274 3.156 4.747.093 1.32-.648 3.324-1.45 5.497-1.077 2.915-2.266 6.134-1.705 8.41.137.56.25 1.051.35 1.493.615 2.698.808 3.546 3.893 6.676.917.93 1.927 1.854 2.933 2.774 2.93 2.68 5.828 5.331 6.314 8.043.354 1.974-.793 2.943-2.351 4.26-1.318 1.112-2.93 2.474-4.176 4.902-.327.441-14.688-9.603-14.144-23.622.327-4.194.762-7.505 3.155-11.038.47-.692 1.04-1.41 1.626-2.15 2.408-3.035 5.111-6.442 2.4-9.992ZM84 41.062c-6.093 1.06-12.257 6.696-14.578 9.382 1.85 5.85 1.196 10.045-.87 13.025-2.068 2.98-2.286 4.195.87 4.857 12.632-1.602 9.776-14.195 9.137-17.014-.065-.289-.108-.475-.108-.537.817.191 1.488 1.3 2.035 2.206.401.663.736 1.216 1.012 1.216-.71-9.809 1.4-11.914 2.205-12.716.182-.182.297-.297.297-.42Zm-69.422 9.492C12.258 47.87 6.092 42.233 0 41.172c0 .123.115.237.297.419.804.802 2.915 2.907 2.205 12.716.276 0 .611-.553 1.012-1.216.547-.905 1.219-2.014 2.034-2.205 0 .061-.042.247-.107.536-.64 2.82-3.495 15.412 9.137 17.014 3.155-.662 2.938-1.876.87-4.857-2.066-2.98-2.72-7.174-.87-13.025ZM51.797 72.19c.174-.353 7.76-3.753 11.532-5.408-.362.478-1.501 1.81-3.155 3.311-.435 2.87-2.285 3.974-4.243 4.084-1.958.11-4.352-1.545-4.134-1.987ZM20.67 66.891c3.771 1.656 11.358 5.055 11.532 5.409.218.441-2.176 2.097-4.134 1.987-1.958-.11-3.808-1.215-4.243-4.085-1.654-1.5-2.793-2.833-3.155-3.311Zm26.665 8.83a1.875 1.875 0 0 0-.326-1.324c1.131-.265 2.575 1.876 3.155 2.98.725 1.619 3.808 4.879 10.335 4.967 8.16.11 9.683-5.519 9.9-8.72.218-3.2-1.523-3.753-2.61-3.974-1.088-.22-3.156.442-4.243 1.546-.213.215-.5.532-.84.907-1.404 1.548-3.72 4.1-5.47 4.722-1.572.558-5.075-1.476-7.308-2.773-.858-.498-1.53-.888-1.831-.98-1.088-.33-2.611-.11-4.134.994-1.523 1.103-1.088 5.077-.87 5.077.218-.499 1.26-1.164 2.256-1.802.988-.631 1.932-1.235 1.986-1.62ZM36.99 74.507a1.875 1.875 0 0 0-.326 1.325c.054.385.998.988 1.986 1.62.997.637 2.038 1.303 2.257 1.802.217 0 .653-3.974-.87-5.078-1.524-1.104-3.047-1.325-4.135-.993-.302.092-.973.481-1.831.98-2.233 1.297-5.736 3.33-7.307 2.773-1.752-.622-4.067-3.175-5.47-4.723-.341-.375-.628-.691-.84-.907-1.088-1.104-3.156-1.766-4.244-1.545-1.088.22-2.828.773-2.61 3.974.217 3.2 1.74 8.83 9.9 8.72 6.527-.089 9.61-3.349 10.335-4.968.58-1.103 2.024-3.245 3.155-2.98Zm7.953 4.747c1.566-.707 2.756-2.06 3.155-2.65.979 1.987.544 3.312-1.632 4.747-1.23.81-1.938 1.516-2.4 1.975-.356.355-.566.564-.755.564-.109-1.104-.327-3.753 1.632-4.636Zm-5.886.11c-1.566-.707-2.756-2.06-3.155-2.65-.979 1.988-.544 3.312 1.632 4.747 1.23.81 1.938 1.516 2.4 1.976.356.354.566.563.755.563.109-1.104.327-3.753-1.632-4.636Zm19.474-49.45c-8.05-11.039-25.892-10.156-33.182 0 0 .367.351.932.799 1.652.894 1.44 2.175 3.5 1.812 5.853l-.062.411c-.476 3.15-.549 3.63-7.336 10.517-4.134 5.298-3.808 11.37-2.61 13.466 1.196 2.098 2.501 3.422 7.18 1.546.864-.877.623-2.322.313-4.181-.51-3.055-1.205-7.226 2.515-11.825-.058.257-.123.51-.19.767-.306 1.187-.641 2.486-.462 4.753.217 2.76.761 5.629 1.414 7.285.653 1.655 2.393 6.623-3.59 6.512 1.233 1.067 4.569 3.157 8.05 2.98 4.352-.22 6.963-2.87 7.18-8.278-.521-4.504-2.9-7.837-4.025-8.941h11.315c-1.45 2.06-4.308 6.733-4.134 8.94.218 2.76 1.197 8.28 7.072 8.28 4.025 0 7.397-1.84 8.16-2.76-2.322-.184-5.985-.994-3.265-7.506 2.216-5.305 1.415-9.493.435-12.032.436 0 3.56 3.533 2.83 8.72-.731 5.188-.545 6.734 0 7.286 2.175.993 6.722 1.876 7.506-2.539.979-5.52-.588-9.68-3.917-13.467-.8-.909-1.56-1.687-2.262-2.403-2.447-2.5-4.157-4.246-4.157-8.193.327-1.693 1.306-5.431 2.611-6.844Zm-8.16-.553c-7.484-3.973-14.287-1.655-16.753 0l6.092 10.707-4.46.221c1.958 2.65 6.005 7.947 6.527 7.947.522 0 4.86-5.445 6.963-8.168h-4.46c1.668-2.87 5.221-9.029 6.092-10.707Z" clip-rule="evenodd"/>
</svg>
